<?xml version="1.0" standalone="yes"?>
<!-- SVG graphic -->
<svg xmlns='http://www.w3.org/2000/svg' xmlns:xlink='http://www.w3.org/1999/xlink'
width="1920px" height="2160px" preserveAspectRatio="xMinYMin meet" viewBox="0 0 1920 2160" version="1.1">
<image x="0" y="0" width="1920px" height="1080px" opacity="1" xlink:href="/home/cdiorio/ws/mecha500/data/0.png"/>
<image x="0" y="1080" width="1920px" height="1080px" opacity="1" xlink:href="/home/cdiorio/ws/mecha500/data/329.png"/>
<polyline points="187.375,314.606,1785.06,1363.55" stroke="rgb(255,0,72)" stroke-width="2" fill="none" opacity="1"/>
<polyline points="242.963,491.444,1861.41,1482.36" stroke="rgb(195,0,255)" stroke-width="2" fill="none" opacity="1"/>
<polyline points="249.998,494.173,1868.91,1484.27" stroke="rgb(242,0,255)" stroke-width="2" fill="none" opacity="1"/>
<polyline points="182.409,547.191,1798.83,1542.14" stroke="rgb(21,255,0)" stroke-width="2" fill="none" opacity="1"/>
<polyline points="243.372,566.846,1862.34,1559.06" stroke="rgb(29,255,0)" stroke-width="2" fill="none" opacity="1"/>
<polyline points="221.877,583.804,1839.86,1576.66" stroke="rgb(233,0,255)" stroke-width="2" fill="none" opacity="1"/>
<polyline points="241.219,602.022,1860.47,1593.96" stroke="rgb(0,59,255)" stroke-width="2" fill="none" opacity="1"/>
<polyline points="238.884,608.002,1858.87,1599.49" stroke="rgb(255,51,0)" stroke-width="2" fill="none" opacity="1"/>
<polyline points="85.6247,327.68,1689.02,1390.61" stroke="rgb(38,0,255)" stroke-width="2" fill="none" opacity="1"/>
<polyline points="60.2551,330.421,1665.93,1396.58" stroke="rgb(0,250,255)" stroke-width="2" fill="none" opacity="1"/>
<polyline points="61.4491,334.282,1667.81,1399.6" stroke="rgb(0,255,8)" stroke-width="2" fill="none" opacity="1"/>
<polyline points="190.4,366.912,1789.01,1415.15" stroke="rgb(225,255,0)" stroke-width="2" fill="none" opacity="1"/>
<polyline points="165.842,508.252,1781.82,1504.95" stroke="rgb(255,212,0)" stroke-width="2" fill="none" opacity="1"/>
<polyline points="269.315,595.788,1891.63,1587.7" stroke="rgb(80,0,255)" stroke-width="2" fill="none" opacity="1"/>
<polyline points="160.102,649.888,1778.22,1638.84" stroke="rgb(0,157,255)" stroke-width="2" fill="none" opacity="1"/>
<polyline points="58.1798,314.836,1664.39,1381.85" stroke="rgb(0,255,195)" stroke-width="2" fill="none" opacity="1"/>
<polyline points="187.004,334.788,1784.83,1383.64" stroke="rgb(255,255,0)" stroke-width="2" fill="none" opacity="1"/>
<polyline points="140.037,499.48,1757.16,1499.26" stroke="rgb(255,0,229)" stroke-width="2" fill="none" opacity="1"/>
<polyline points="140.037,499.48,1757.16,1499.26" stroke="rgb(255,221,0)" stroke-width="2" fill="none" opacity="1"/>
<polyline points="188.28,502.418,1804.14,1499.58" stroke="rgb(0,255,67)" stroke-width="2" fill="none" opacity="1"/>
<polyline points="141.045,505.512,1757.61,1504.2" stroke="rgb(46,0,255)" stroke-width="2" fill="none" opacity="1"/>
<polyline points="146.051,514.648,1763,1511.41" stroke="rgb(255,34,0)" stroke-width="2" fill="none" opacity="1"/>
<polyline points="247.318,563.168,1866.66,1555.28" stroke="rgb(140,255,0)" stroke-width="2" fill="none" opacity="1"/>
<polyline points="191.246,569.806,1808.33,1563.78" stroke="rgb(216,255,0)" stroke-width="2" fill="none" opacity="1"/>
<polyline points="191.16,586.889,1807.68,1578.95" stroke="rgb(246,255,0)" stroke-width="2" fill="none" opacity="1"/>
<polyline points="163.347,608.463,1781.13,1598.73" stroke="rgb(0,255,212)" stroke-width="2" fill="none" opacity="1"/>
<polyline points="147.884,623.762,1766.13,1614.92" stroke="rgb(246,255,0)" stroke-width="2" fill="none" opacity="1"/>
<polyline points="159.057,654.415,1776.92,1643.59" stroke="rgb(182,0,255)" stroke-width="2" fill="none" opacity="1"/>
<polyline points="154.697,657.275,1773.35,1646.84" stroke="rgb(255,0,225)" stroke-width="2" fill="none" opacity="1"/>
<polyline points="232.788,333.387,1833.15,1375.35" stroke="rgb(255,233,0)" stroke-width="2" fill="none" opacity="1"/>
<polyline points="245.73,493.468,1864.53,1484.7" stroke="rgb(255,0,131)" stroke-width="2" fill="none" opacity="1"/>
<polyline points="188.23,502.001,1804.17,1499.07" stroke="rgb(0,255,178)" stroke-width="2" fill="none" opacity="1"/>
<polyline points="123.45,553.775,1741.78,1549.86" stroke="rgb(255,0,76)" stroke-width="2" fill="none" opacity="1"/>
<polyline points="237.557,587.569,1856.09,1581.53" stroke="rgb(0,255,76)" stroke-width="2" fill="none" opacity="1"/>
<polyline points="202.837,599.791,1819.81,1592.32" stroke="rgb(0,255,123)" stroke-width="2" fill="none" opacity="1"/>
<polyline points="143.454,673.427,1761.9,1662.95" stroke="rgb(255,0,140)" stroke-width="2" fill="none" opacity="1"/>
<polyline points="182.987,726.748,1805.36,1702.79" stroke="rgb(199,255,0)" stroke-width="2" fill="none" opacity="1"/>
<polyline points="105.88,236.062,1706.76,1300" stroke="rgb(255,68,0)" stroke-width="2" fill="none" opacity="1"/>
<polyline points="73.9171,319.226,1677.96,1384.23" stroke="rgb(0,123,255)" stroke-width="2" fill="none" opacity="1"/>
<polyline points="228.783,507.903,1847.72,1499.33" stroke="rgb(255,0,161)" stroke-width="2" fill="none" opacity="1"/>
<polyline points="224.75,525.487,1842.17,1515.72" stroke="rgb(216,255,0)" stroke-width="2" fill="none" opacity="1"/>
<polyline points="240.972,535.388,1858.74,1531.56" stroke="rgb(255,0,114)" stroke-width="2" fill="none" opacity="1"/>
<polyline points="240.972,535.388,1858.74,1531.56" stroke="rgb(89,0,255)" stroke-width="2" fill="none" opacity="1"/>
<polyline points="214.475,540.67,1831.8,1532.38" stroke="rgb(4,255,0)" stroke-width="2" fill="none" opacity="1"/>
<polyline points="123.004,610.309,1742.39,1603.11" stroke="rgb(67,255,0)" stroke-width="2" fill="none" opacity="1"/>
<polyline points="115.336,615.091,1734.34,1609.7" stroke="rgb(255,0,97)" stroke-width="2" fill="none" opacity="1"/>
<polyline points="219.984,622.886,1839.08,1612.95" stroke="rgb(0,255,161)" stroke-width="2" fill="none" opacity="1"/>
<polyline points="141.735,634.632,1759.44,1626.83" stroke="rgb(0,255,186)" stroke-width="2" fill="none" opacity="1"/>
<polyline points="32.9346,313.122,1643.85,1382.91" stroke="rgb(0,255,148)" stroke-width="2" fill="none" opacity="1"/>
<polyline points="151.11,497.881,1767.54,1496.5" stroke="rgb(0,127,255)" stroke-width="2" fill="none" opacity="1"/>
<polyline points="260.459,513.863,1879.23,1507.23" stroke="rgb(0,255,225)" stroke-width="2" fill="none" opacity="1"/>
<polyline points="161.721,517.829,1778.16,1513.8" stroke="rgb(255,195,0)" stroke-width="2" fill="none" opacity="1"/>
<polyline points="106.889,605.576,1727.01,1597.96" stroke="rgb(123,255,0)" stroke-width="2" fill="none" opacity="1"/>
<polyline points="130.235,619.225,1748,1612.66" stroke="rgb(85,0,255)" stroke-width="2" fill="none" opacity="1"/>
<polyline points="174.815,737.395,1797.18,1711.94" stroke="rgb(16,255,0)" stroke-width="2" fill="none" opacity="1"/>
<polyline points="216.284,342.5,1815.69,1385.31" stroke="rgb(0,255,140)" stroke-width="2" fill="none" opacity="1"/>
<polyline points="193.828,345.179,1792.65,1391.35" stroke="rgb(255,0,246)" stroke-width="2" fill="none" opacity="1"/>
<polyline points="260.459,513.863,1880.18,1507.29" stroke="rgb(255,212,0)" stroke-width="2" fill="none" opacity="1"/>
<polyline points="171.427,527.217,1788.01,1522.47" stroke="rgb(187,255,0)" stroke-width="2" fill="none" opacity="1"/>
<polyline points="277.127,678.617,1900.21,1676" stroke="rgb(0,255,4)" stroke-width="2" fill="none" opacity="1"/>
<polyline points="231.242,532.687,1847.76,1526.67" stroke="rgb(63,255,0)" stroke-width="2" fill="none" opacity="1"/>
<polyline points="192.863,540.302,1809.53,1536.59" stroke="rgb(255,191,0)" stroke-width="2" fill="none" opacity="1"/>
<polyline points="233.314,551.475,1851.42,1546.14" stroke="rgb(186,0,255)" stroke-width="2" fill="none" opacity="1"/>
<polyline points="138.644,570.146,1756.25,1565.34" stroke="rgb(140,255,0)" stroke-width="2" fill="none" opacity="1"/>
<polyline points="192.662,584.341,1810.07,1578.23" stroke="rgb(255,238,0)" stroke-width="2" fill="none" opacity="1"/>
<polyline points="151.771,609.122,1770.03,1601.64" stroke="rgb(255,0,233)" stroke-width="2" fill="none" opacity="1"/>
<polyline points="154.534,640.303,1771.98,1630.1" stroke="rgb(195,0,255)" stroke-width="2" fill="none" opacity="1"/>
<polyline points="128.982,641.193,1748.51,1632.68" stroke="rgb(0,255,38)" stroke-width="2" fill="none" opacity="1"/>
<polyline points="214.914,564.533,1831.61,1558.56" stroke="rgb(0,199,255)" stroke-width="2" fill="none" opacity="1"/>
<polyline points="109.459,632.729,1729.98,1625.72" stroke="rgb(0,255,72)" stroke-width="2" fill="none" opacity="1"/>
<polyline points="115.775,589.142,1735.3,1582.43" stroke="rgb(255,0,153)" stroke-width="2" fill="none" opacity="1"/>
<polyline points="109.331,633.952,1728.82,1627.76" stroke="rgb(0,255,63)" stroke-width="2" fill="none" opacity="1"/>
<polyline points="240.501,508.568,1859.55,1500.49" stroke="rgb(255,0,76)" stroke-width="2" fill="none" opacity="1"/>
<polyline points="240.501,508.568,1859.55,1500.49" stroke="rgb(0,63,255)" stroke-width="2" fill="none" opacity="1"/>
<polyline points="167.418,800.589,1790.46,1772.05" stroke="rgb(59,0,255)" stroke-width="2" fill="none" opacity="1"/>
<circle cx="187.375" cy="314.606" r="4" stroke="rgb(255,0,72)" stroke-width="2" fill="none" opacity="1"/>
<circle cx="1785.06" cy="1363.55" r="4" stroke="rgb(255,0,72)" stroke-width="2" fill="none" opacity="1"/>
<circle cx="242.963" cy="491.444" r="4" stroke="rgb(195,0,255)" stroke-width="2" fill="none" opacity="1"/>
<circle cx="1861.41" cy="1482.36" r="4" stroke="rgb(195,0,255)" stroke-width="2" fill="none" opacity="1"/>
<circle cx="249.998" cy="494.173" r="4" stroke="rgb(242,0,255)" stroke-width="2" fill="none" opacity="1"/>
<circle cx="1868.91" cy="1484.27" r="4" stroke="rgb(242,0,255)" stroke-width="2" fill="none" opacity="1"/>
<circle cx="182.409" cy="547.191" r="4" stroke="rgb(21,255,0)" stroke-width="2" fill="none" opacity="1"/>
<circle cx="1798.83" cy="1542.14" r="4" stroke="rgb(21,255,0)" stroke-width="2" fill="none" opacity="1"/>
<circle cx="243.372" cy="566.846" r="4" stroke="rgb(29,255,0)" stroke-width="2" fill="none" opacity="1"/>
<circle cx="1862.34" cy="1559.06" r="4" stroke="rgb(29,255,0)" stroke-width="2" fill="none" opacity="1"/>
<circle cx="221.877" cy="583.804" r="4" stroke="rgb(233,0,255)" stroke-width="2" fill="none" opacity="1"/>
<circle cx="1839.86" cy="1576.66" r="4" stroke="rgb(233,0,255)" stroke-width="2" fill="none" opacity="1"/>
<circle cx="241.219" cy="602.022" r="4" stroke="rgb(0,59,255)" stroke-width="2" fill="none" opacity="1"/>
<circle cx="1860.47" cy="1593.96" r="4" stroke="rgb(0,59,255)" stroke-width="2" fill="none" opacity="1"/>
<circle cx="238.884" cy="608.002" r="4" stroke="rgb(255,51,0)" stroke-width="2" fill="none" opacity="1"/>
<circle cx="1858.87" cy="1599.49" r="4" stroke="rgb(255,51,0)" stroke-width="2" fill="none" opacity="1"/>
<circle cx="85.6247" cy="327.68" r="4" stroke="rgb(38,0,255)" stroke-width="2" fill="none" opacity="1"/>
<circle cx="1689.02" cy="1390.61" r="4" stroke="rgb(38,0,255)" stroke-width="2" fill="none" opacity="1"/>
<circle cx="60.2551" cy="330.421" r="4" stroke="rgb(0,250,255)" stroke-width="2" fill="none" opacity="1"/>
<circle cx="1665.93" cy="1396.58" r="4" stroke="rgb(0,250,255)" stroke-width="2" fill="none" opacity="1"/>
<circle cx="61.4491" cy="334.282" r="4" stroke="rgb(0,255,8)" stroke-width="2" fill="none" opacity="1"/>
<circle cx="1667.81" cy="1399.6" r="4" stroke="rgb(0,255,8)" stroke-width="2" fill="none" opacity="1"/>
<circle cx="190.4" cy="366.912" r="4" stroke="rgb(225,255,0)" stroke-width="2" fill="none" opacity="1"/>
<circle cx="1789.01" cy="1415.15" r="4" stroke="rgb(225,255,0)" stroke-width="2" fill="none" opacity="1"/>
<circle cx="165.842" cy="508.252" r="4" stroke="rgb(255,212,0)" stroke-width="2" fill="none" opacity="1"/>
<circle cx="1781.82" cy="1504.95" r="4" stroke="rgb(255,212,0)" stroke-width="2" fill="none" opacity="1"/>
<circle cx="269.315" cy="595.788" r="4" stroke="rgb(80,0,255)" stroke-width="2" fill="none" opacity="1"/>
<circle cx="1891.63" cy="1587.7" r="4" stroke="rgb(80,0,255)" stroke-width="2" fill="none" opacity="1"/>
<circle cx="160.102" cy="649.888" r="4" stroke="rgb(0,157,255)" stroke-width="2" fill="none" opacity="1"/>
<circle cx="1778.22" cy="1638.84" r="4" stroke="rgb(0,157,255)" stroke-width="2" fill="none" opacity="1"/>
<circle cx="58.1798" cy="314.836" r="4" stroke="rgb(0,255,195)" stroke-width="2" fill="none" opacity="1"/>
<circle cx="1664.39" cy="1381.85" r="4" stroke="rgb(0,255,195)" stroke-width="2" fill="none" opacity="1"/>
<circle cx="187.004" cy="334.788" r="4" stroke="rgb(255,255,0)" stroke-width="2" fill="none" opacity="1"/>
<circle cx="1784.83" cy="1383.64" r="4" stroke="rgb(255,255,0)" stroke-width="2" fill="none" opacity="1"/>
<circle cx="140.037" cy="499.48" r="4" stroke="rgb(255,0,229)" stroke-width="2" fill="none" opacity="1"/>
<circle cx="1757.16" cy="1499.26" r="4" stroke="rgb(255,0,229)" stroke-width="2" fill="none" opacity="1"/>
<circle cx="140.037" cy="499.48" r="4" stroke="rgb(255,221,0)" stroke-width="2" fill="none" opacity="1"/>
<circle cx="1757.16" cy="1499.26" r="4" stroke="rgb(255,221,0)" stroke-width="2" fill="none" opacity="1"/>
<circle cx="188.28" cy="502.418" r="4" stroke="rgb(0,255,67)" stroke-width="2" fill="none" opacity="1"/>
<circle cx="1804.14" cy="1499.58" r="4" stroke="rgb(0,255,67)" stroke-width="2" fill="none" opacity="1"/>
<circle cx="141.045" cy="505.512" r="4" stroke="rgb(46,0,255)" stroke-width="2" fill="none" opacity="1"/>
<circle cx="1757.61" cy="1504.2" r="4" stroke="rgb(46,0,255)" stroke-width="2" fill="none" opacity="1"/>
<circle cx="146.051" cy="514.648" r="4" stroke="rgb(255,34,0)" stroke-width="2" fill="none" opacity="1"/>
<circle cx="1763" cy="1511.41" r="4" stroke="rgb(255,34,0)" stroke-width="2" fill="none" opacity="1"/>
<circle cx="247.318" cy="563.168" r="4" stroke="rgb(140,255,0)" stroke-width="2" fill="none" opacity="1"/>
<circle cx="1866.66" cy="1555.28" r="4" stroke="rgb(140,255,0)" stroke-width="2" fill="none" opacity="1"/>
<circle cx="191.246" cy="569.806" r="4" stroke="rgb(216,255,0)" stroke-width="2" fill="none" opacity="1"/>
<circle cx="1808.33" cy="1563.78" r="4" stroke="rgb(216,255,0)" stroke-width="2" fill="none" opacity="1"/>
<circle cx="191.16" cy="586.889" r="4" stroke="rgb(246,255,0)" stroke-width="2" fill="none" opacity="1"/>
<circle cx="1807.68" cy="1578.95" r="4" stroke="rgb(246,255,0)" stroke-width="2" fill="none" opacity="1"/>
<circle cx="163.347" cy="608.463" r="4" stroke="rgb(0,255,212)" stroke-width="2" fill="none" opacity="1"/>
<circle cx="1781.13" cy="1598.73" r="4" stroke="rgb(0,255,212)" stroke-width="2" fill="none" opacity="1"/>
<circle cx="147.884" cy="623.762" r="4" stroke="rgb(246,255,0)" stroke-width="2" fill="none" opacity="1"/>
<circle cx="1766.13" cy="1614.92" r="4" stroke="rgb(246,255,0)" stroke-width="2" fill="none" opacity="1"/>
<circle cx="159.057" cy="654.415" r="4" stroke="rgb(182,0,255)" stroke-width="2" fill="none" opacity="1"/>
<circle cx="1776.92" cy="1643.59" r="4" stroke="rgb(182,0,255)" stroke-width="2" fill="none" opacity="1"/>
<circle cx="154.697" cy="657.275" r="4" stroke="rgb(255,0,225)" stroke-width="2" fill="none" opacity="1"/>
<circle cx="1773.35" cy="1646.84" r="4" stroke="rgb(255,0,225)" stroke-width="2" fill="none" opacity="1"/>
<circle cx="232.788" cy="333.387" r="4" stroke="rgb(255,233,0)" stroke-width="2" fill="none" opacity="1"/>
<circle cx="1833.15" cy="1375.35" r="4" stroke="rgb(255,233,0)" stroke-width="2" fill="none" opacity="1"/>
<circle cx="245.73" cy="493.468" r="4" stroke="rgb(255,0,131)" stroke-width="2" fill="none" opacity="1"/>
<circle cx="1864.53" cy="1484.7" r="4" stroke="rgb(255,0,131)" stroke-width="2" fill="none" opacity="1"/>
<circle cx="188.23" cy="502.001" r="4" stroke="rgb(0,255,178)" stroke-width="2" fill="none" opacity="1"/>
<circle cx="1804.17" cy="1499.07" r="4" stroke="rgb(0,255,178)" stroke-width="2" fill="none" opacity="1"/>
<circle cx="123.45" cy="553.775" r="4" stroke="rgb(255,0,76)" stroke-width="2" fill="none" opacity="1"/>
<circle cx="1741.78" cy="1549.86" r="4" stroke="rgb(255,0,76)" stroke-width="2" fill="none" opacity="1"/>
<circle cx="237.557" cy="587.569" r="4" stroke="rgb(0,255,76)" stroke-width="2" fill="none" opacity="1"/>
<circle cx="1856.09" cy="1581.53" r="4" stroke="rgb(0,255,76)" stroke-width="2" fill="none" opacity="1"/>
<circle cx="202.837" cy="599.791" r="4" stroke="rgb(0,255,123)" stroke-width="2" fill="none" opacity="1"/>
<circle cx="1819.81" cy="1592.32" r="4" stroke="rgb(0,255,123)" stroke-width="2" fill="none" opacity="1"/>
<circle cx="143.454" cy="673.427" r="4" stroke="rgb(255,0,140)" stroke-width="2" fill="none" opacity="1"/>
<circle cx="1761.9" cy="1662.95" r="4" stroke="rgb(255,0,140)" stroke-width="2" fill="none" opacity="1"/>
<circle cx="182.987" cy="726.748" r="4" stroke="rgb(199,255,0)" stroke-width="2" fill="none" opacity="1"/>
<circle cx="1805.36" cy="1702.79" r="4" stroke="rgb(199,255,0)" stroke-width="2" fill="none" opacity="1"/>
<circle cx="105.88" cy="236.062" r="4" stroke="rgb(255,68,0)" stroke-width="2" fill="none" opacity="1"/>
<circle cx="1706.76" cy="1300" r="4" stroke="rgb(255,68,0)" stroke-width="2" fill="none" opacity="1"/>
<circle cx="73.9171" cy="319.226" r="4" stroke="rgb(0,123,255)" stroke-width="2" fill="none" opacity="1"/>
<circle cx="1677.96" cy="1384.23" r="4" stroke="rgb(0,123,255)" stroke-width="2" fill="none" opacity="1"/>
<circle cx="228.783" cy="507.903" r="4" stroke="rgb(255,0,161)" stroke-width="2" fill="none" opacity="1"/>
<circle cx="1847.72" cy="1499.33" r="4" stroke="rgb(255,0,161)" stroke-width="2" fill="none" opacity="1"/>
<circle cx="224.75" cy="525.487" r="4" stroke="rgb(216,255,0)" stroke-width="2" fill="none" opacity="1"/>
<circle cx="1842.17" cy="1515.72" r="4" stroke="rgb(216,255,0)" stroke-width="2" fill="none" opacity="1"/>
<circle cx="240.972" cy="535.388" r="4" stroke="rgb(255,0,114)" stroke-width="2" fill="none" opacity="1"/>
<circle cx="1858.74" cy="1531.56" r="4" stroke="rgb(255,0,114)" stroke-width="2" fill="none" opacity="1"/>
<circle cx="240.972" cy="535.388" r="4" stroke="rgb(89,0,255)" stroke-width="2" fill="none" opacity="1"/>
<circle cx="1858.74" cy="1531.56" r="4" stroke="rgb(89,0,255)" stroke-width="2" fill="none" opacity="1"/>
<circle cx="214.475" cy="540.67" r="4" stroke="rgb(4,255,0)" stroke-width="2" fill="none" opacity="1"/>
<circle cx="1831.8" cy="1532.38" r="4" stroke="rgb(4,255,0)" stroke-width="2" fill="none" opacity="1"/>
<circle cx="123.004" cy="610.309" r="4" stroke="rgb(67,255,0)" stroke-width="2" fill="none" opacity="1"/>
<circle cx="1742.39" cy="1603.11" r="4" stroke="rgb(67,255,0)" stroke-width="2" fill="none" opacity="1"/>
<circle cx="115.336" cy="615.091" r="4" stroke="rgb(255,0,97)" stroke-width="2" fill="none" opacity="1"/>
<circle cx="1734.34" cy="1609.7" r="4" stroke="rgb(255,0,97)" stroke-width="2" fill="none" opacity="1"/>
<circle cx="219.984" cy="622.886" r="4" stroke="rgb(0,255,161)" stroke-width="2" fill="none" opacity="1"/>
<circle cx="1839.08" cy="1612.95" r="4" stroke="rgb(0,255,161)" stroke-width="2" fill="none" opacity="1"/>
<circle cx="141.735" cy="634.632" r="4" stroke="rgb(0,255,186)" stroke-width="2" fill="none" opacity="1"/>
<circle cx="1759.44" cy="1626.83" r="4" stroke="rgb(0,255,186)" stroke-width="2" fill="none" opacity="1"/>
<circle cx="32.9346" cy="313.122" r="4" stroke="rgb(0,255,148)" stroke-width="2" fill="none" opacity="1"/>
<circle cx="1643.85" cy="1382.91" r="4" stroke="rgb(0,255,148)" stroke-width="2" fill="none" opacity="1"/>
<circle cx="151.11" cy="497.881" r="4" stroke="rgb(0,127,255)" stroke-width="2" fill="none" opacity="1"/>
<circle cx="1767.54" cy="1496.5" r="4" stroke="rgb(0,127,255)" stroke-width="2" fill="none" opacity="1"/>
<circle cx="260.459" cy="513.863" r="4" stroke="rgb(0,255,225)" stroke-width="2" fill="none" opacity="1"/>
<circle cx="1879.23" cy="1507.23" r="4" stroke="rgb(0,255,225)" stroke-width="2" fill="none" opacity="1"/>
<circle cx="161.721" cy="517.829" r="4" stroke="rgb(255,195,0)" stroke-width="2" fill="none" opacity="1"/>
<circle cx="1778.16" cy="1513.8" r="4" stroke="rgb(255,195,0)" stroke-width="2" fill="none" opacity="1"/>
<circle cx="106.889" cy="605.576" r="4" stroke="rgb(123,255,0)" stroke-width="2" fill="none" opacity="1"/>
<circle cx="1727.01" cy="1597.96" r="4" stroke="rgb(123,255,0)" stroke-width="2" fill="none" opacity="1"/>
<circle cx="130.235" cy="619.225" r="4" stroke="rgb(85,0,255)" stroke-width="2" fill="none" opacity="1"/>
<circle cx="1748" cy="1612.66" r="4" stroke="rgb(85,0,255)" stroke-width="2" fill="none" opacity="1"/>
<circle cx="174.815" cy="737.395" r="4" stroke="rgb(16,255,0)" stroke-width="2" fill="none" opacity="1"/>
<circle cx="1797.18" cy="1711.94" r="4" stroke="rgb(16,255,0)" stroke-width="2" fill="none" opacity="1"/>
<circle cx="216.284" cy="342.5" r="4" stroke="rgb(0,255,140)" stroke-width="2" fill="none" opacity="1"/>
<circle cx="1815.69" cy="1385.31" r="4" stroke="rgb(0,255,140)" stroke-width="2" fill="none" opacity="1"/>
<circle cx="193.828" cy="345.179" r="4" stroke="rgb(255,0,246)" stroke-width="2" fill="none" opacity="1"/>
<circle cx="1792.65" cy="1391.35" r="4" stroke="rgb(255,0,246)" stroke-width="2" fill="none" opacity="1"/>
<circle cx="260.459" cy="513.863" r="4" stroke="rgb(255,212,0)" stroke-width="2" fill="none" opacity="1"/>
<circle cx="1880.18" cy="1507.29" r="4" stroke="rgb(255,212,0)" stroke-width="2" fill="none" opacity="1"/>
<circle cx="171.427" cy="527.217" r="4" stroke="rgb(187,255,0)" stroke-width="2" fill="none" opacity="1"/>
<circle cx="1788.01" cy="1522.47" r="4" stroke="rgb(187,255,0)" stroke-width="2" fill="none" opacity="1"/>
<circle cx="277.127" cy="678.617" r="4" stroke="rgb(0,255,4)" stroke-width="2" fill="none" opacity="1"/>
<circle cx="1900.21" cy="1676" r="4" stroke="rgb(0,255,4)" stroke-width="2" fill="none" opacity="1"/>
<circle cx="231.242" cy="532.687" r="4" stroke="rgb(63,255,0)" stroke-width="2" fill="none" opacity="1"/>
<circle cx="1847.76" cy="1526.67" r="4" stroke="rgb(63,255,0)" stroke-width="2" fill="none" opacity="1"/>
<circle cx="192.863" cy="540.302" r="4" stroke="rgb(255,191,0)" stroke-width="2" fill="none" opacity="1"/>
<circle cx="1809.53" cy="1536.59" r="4" stroke="rgb(255,191,0)" stroke-width="2" fill="none" opacity="1"/>
<circle cx="233.314" cy="551.475" r="4" stroke="rgb(186,0,255)" stroke-width="2" fill="none" opacity="1"/>
<circle cx="1851.42" cy="1546.14" r="4" stroke="rgb(186,0,255)" stroke-width="2" fill="none" opacity="1"/>
<circle cx="138.644" cy="570.146" r="4" stroke="rgb(140,255,0)" stroke-width="2" fill="none" opacity="1"/>
<circle cx="1756.25" cy="1565.34" r="4" stroke="rgb(140,255,0)" stroke-width="2" fill="none" opacity="1"/>
<circle cx="192.662" cy="584.341" r="4" stroke="rgb(255,238,0)" stroke-width="2" fill="none" opacity="1"/>
<circle cx="1810.07" cy="1578.23" r="4" stroke="rgb(255,238,0)" stroke-width="2" fill="none" opacity="1"/>
<circle cx="151.771" cy="609.122" r="4" stroke="rgb(255,0,233)" stroke-width="2" fill="none" opacity="1"/>
<circle cx="1770.03" cy="1601.64" r="4" stroke="rgb(255,0,233)" stroke-width="2" fill="none" opacity="1"/>
<circle cx="154.534" cy="640.303" r="4" stroke="rgb(195,0,255)" stroke-width="2" fill="none" opacity="1"/>
<circle cx="1771.98" cy="1630.1" r="4" stroke="rgb(195,0,255)" stroke-width="2" fill="none" opacity="1"/>
<circle cx="128.982" cy="641.193" r="4" stroke="rgb(0,255,38)" stroke-width="2" fill="none" opacity="1"/>
<circle cx="1748.51" cy="1632.68" r="4" stroke="rgb(0,255,38)" stroke-width="2" fill="none" opacity="1"/>
<circle cx="214.914" cy="564.533" r="4" stroke="rgb(0,199,255)" stroke-width="2" fill="none" opacity="1"/>
<circle cx="1831.61" cy="1558.56" r="4" stroke="rgb(0,199,255)" stroke-width="2" fill="none" opacity="1"/>
<circle cx="109.459" cy="632.729" r="4" stroke="rgb(0,255,72)" stroke-width="2" fill="none" opacity="1"/>
<circle cx="1729.98" cy="1625.72" r="4" stroke="rgb(0,255,72)" stroke-width="2" fill="none" opacity="1"/>
<circle cx="115.775" cy="589.142" r="4" stroke="rgb(255,0,153)" stroke-width="2" fill="none" opacity="1"/>
<circle cx="1735.3" cy="1582.43" r="4" stroke="rgb(255,0,153)" stroke-width="2" fill="none" opacity="1"/>
<circle cx="109.331" cy="633.952" r="4" stroke="rgb(0,255,63)" stroke-width="2" fill="none" opacity="1"/>
<circle cx="1728.82" cy="1627.76" r="4" stroke="rgb(0,255,63)" stroke-width="2" fill="none" opacity="1"/>
<circle cx="240.501" cy="508.568" r="4" stroke="rgb(255,0,76)" stroke-width="2" fill="none" opacity="1"/>
<circle cx="1859.55" cy="1500.49" r="4" stroke="rgb(255,0,76)" stroke-width="2" fill="none" opacity="1"/>
<circle cx="240.501" cy="508.568" r="4" stroke="rgb(0,63,255)" stroke-width="2" fill="none" opacity="1"/>
<circle cx="1859.55" cy="1500.49" r="4" stroke="rgb(0,63,255)" stroke-width="2" fill="none" opacity="1"/>
<circle cx="167.418" cy="800.589" r="4" stroke="rgb(59,0,255)" stroke-width="2" fill="none" opacity="1"/>
<circle cx="1790.46" cy="1772.05" r="4" stroke="rgb(59,0,255)" stroke-width="2" fill="none" opacity="1"/>
</svg>